/* XPM */
static char * exit_o_xpm[] = {
"64 64 9 1",
" 	c #0D2B45",
".	c #28281C",
"+	c #968D69",
"@	c #D6C88E",
"#	c #6A6349",
"$	c #46412F",
"%	c #343124",
"&	c #14120C",
"*	c #1E1B12",
"                         ..      .......                        ",
"                       ..++... ..+@@@@@+...                     ",
"                     ..+++##$%.++++++++@@++.                    ",
"                   ..@++##$$%%.+++#####++@++.                   ",
"                  .@++###$$%%.+###########+++.                  ",
"                 .++###$$$%%.+$$$$$$$######++#.                 ",
"                .++##$$$$%%.%$$$$$$$$$#######++.                ",
"                .$$$$$$%%%.&...%%%%%$$$$######++.               ",
"               .+.%$$%%%%.&&&&&.....%%$$$$$$###$$.              ",
"              .@#$.%%....&&&&&&&&&&&.%%$$$$$$$$%%.              ",
"             .@##$%..&&&&&&&&&&&&&&&&..%$$$$$$%%.$.             ",
"            .@+#$$.&&&&&&&&&&&&&&&&&&&&..%%%%%..$$.             ",
"            .@#$$%.&&&&&&&&&&&&&&&&&&&&&&.....@+#$$.            ",
"           .++#$$%.&&&&&&&&&&&&&&&&&&&&&&&&&&&.@##$.            ",
"           .+#$$%.&&&&&&&&&&&&&&&&&&&&&&&&&&&&.@+#$.            ",
"           .+#$%%.&&&&&&&&&&&&&&&&&&&&&&&&&&&&&.+#$%.           ",
"           .$$%%.&&&&&&&&&&&&&&&&&&&&&&&&&&&&&&.+#$%.           ",
"           .$$%.&&&&&&&&&&&&&&&&&&&&&&&&&&&&&&&.+$$%.           ",
"          .+.%.&&&&&&&&&&&&&&&&&&&&&&&&&&&&&&&&.$$$%.           ",
"         .@+.%.&&&&&&&&&&&&&&&&&&&&&&&&&&&&&&&&&.$$%.           ",
"         .@#$.&&&&&&&&&&&&&&&&&&&&&&&&&&&&&&&&&&.%$%.           ",
"        .@+#$.&&&&&&&&&&&&&&&&&&&&&&&&&&***&&&&&&.%%.           ",
"        .+##$.&&&&&&&&&&&&&&&&&&&&&&&&&*****&&&&&&.%%.          ",
"       .++##$.&&&&&&&&&&&&&&&&&&&&&&&&******&&&&&&..%%.         ",
"       .++##$%.&&&&&&&&&&&&&&&&&&&&&&********&&&&&.+.%.         ",
"       .+###$%.&&&&&&&&&&&&&&&&&&&&&*********&&&&&.++.$.        ",
"       .+##$$%.&&&&&&&&&&&&&&&&&&&&&**********&&&&.@+#$.        ",
"       .+##$$%.&&&&&&&&&&&&&&&&&&&&***********&&&&.@+#$.        ",
"       .$#$$$%.&&&&&&&&&&&&&&&&&&&*************&&&.@+#$%.       ",
"        .$$$$%.&&&&&&&&&&&&&&&&&&**************&&&.++#$%.       ",
"        .%$$%%.&&&&&&&&&&&&&&&&&****************&&.+##$%.       ",
"       .%.%$%%.&&&&&&&&&&&&&&&&*****************&&.+##$%.       ",
"       .++.%%.&&&&&&&&&&&&&&&&&*****************&&.+##$%.       ",
"       .+++.%.&&&&&&&&&&&&&&&&*******************&.+#$$%.       ",
"       .@++$..&&&&&&&&&&&&&&&********************&&.#$$%.       ",
"       .@++$.&&&&&&&&&&&&&&&&********************&&.#$%%.       ",
"      .+@+#$.&&&&&&&&&&&&&&&*********************&&.$$%%.       ",
"      .+@+#$%.&&&&&&&&&&&&&&**********************&.$$%.        ",
"      .@++#$%.&&&&&&&&&&&&&&**********************&&.%%.        ",
"      .@+##$$.&&&&&&&&&&&&&&**********************&&.%.+.       ",
"      .@+##$$%.&&&&&&&&&&&&***********************&&.%.+.       ",
"      .@+##$$%.&&&&&&&&&&&&***********************&&&.+@#.      ",
"      .@+###$%.&&&&&&&&&&&&***********************&&&&.@#.      ",
"     .+@+###$%%.&&&&&&&&&&&***********************&&&&.+#$.     ",
"     .+@####$%%%.&&&&&&&&&&***********************&&&&.+#$.     ",
"     .++###$$%%%.&&&&&&&&&&***********************&&&&.+#%.     ",
"     .++###$$%%%.&&&&&&&&&************************&&&&.+#%.     ",
"    .++####$$%%.&&&&&&&&&&************************&&&&.+#%.     ",
"    .++###$$$%%.&&&&&&&&&&***********************&&&&&.+$%.     ",
"    .++###$$$%%.&&&&&&&&&&***********************&&&&&.$$%.     ",
"    .++##$$$$%%.&&&&&&&&&&***********************&&&&&.%$%.     ",
"    .++##$$$%%.&&&&&&&&&&&***********************&&&&.+.%%.     ",
"    .++#$$$$%%.&&&&&&&&&&&***********************&&&&.+.%%.     ",
"    .++#$$$$%.&&&&&&&&&&&&***********************&&&.++#.%.     ",
"     .#$$$$%%.&&&&&&&&&&&&***********************&&&.+##.%.     ",
"     .%$$$$%%.&&&&&&&&&&&&**********************&&&.++##.%.     ",
"     .%%$$%%.&&&&&&&&&&&&&**********************&&.+++##$.      ",
"      ..%$%%.&&&&&&&&&&&&&**********************&.+@+###$.      ",
"     .++.%%%.&&&&&&&&&&&&&**********************&.@++###$.      ",
"     .+@+.%%.&&&&&&&&&&&&&**********************.+@++###$%.     ",
"     .@++#..&&&&&&&&&&&&&&**********************.+@++###$$.     ",
"     .@++##$.&&&&&&&&&&&&&**********************&.+@+###$$%.    ",
"     .@+###$.&&&&&&&&&&&&&**********************&.+@+###$$%.    ",
"     .++###$.&&&&&&&&&&&&&**********************&&.++###$$%%.   "};
