/* XPM */
static char * p_r_xpm[] = {
"64 64 7 1",
" 	c #0D2B45",
".	c #4D2B32",
"+	c #AD7757",
"@	c #7A4841",
"#	c #341C27",
"$	c #241527",
"%	c #090A14",
"                                                                ",
"                                                                ",
"                                                                ",
"                                                                ",
"                                                                ",
"                                                                ",
"                                                                ",
"                                                                ",
"                                                                ",
"                                                                ",
"                                                                ",
"                                                                ",
"                                                                ",
"                                                                ",
"                                                                ",
"             ..........                                         ",
"           .............++++                                    ",
"          ...............++++++++           ++++++++++          ",
"        .....@@@.........+.++@+++++++     +++@@++@@@+++         ",
"       .......@@@...........@@+@@@++++  +++++++.#+@+@@+@+       ",
"      ....@@@@..@@@.........@@@@+++++++++++++++.#+@@@@@+++      ",
"     .......@@@@@@@@@.........@++@@@@+++++++++++.#@@@@@@@@++    ",
"     .......@@@@..@@@..........@@@@@+++++++++@+++.@@$$$@@..##.  ",
"    ....@....@@..@@@........@@.@@@@@+@@@++++@++@@@@@@@@@...#%%% ",
"    .....@@@@@@@@@@@@@@@.....@@@@@@@@@@++@@@@++@@@@@@..@..###%# ",
"   .....@@@@@@@@@@@@@@@@.....@@@@@@@@@@@++@@@@++@@@@@@...####$# ",
"   ....@@@@...@@@..@@@......@@@@@@@@@@@@+@@@@@@@@@@@@@...####$# ",
"  ..........@@@@..@@@@.@...@@.@@@@@@@@@@@@@@@@@@@@@@.@@..####$# ",
"  .........@@@@@@@@@@@@@......@@@@@@@@@@@@@@@@@@@@@@....###$$$# ",
" ...##....@@@@@@@@@@@@@.....@@@@@@@@@@@@@@@@@@@@..@...########  ",
" #.##....@@@.@@@@.@@@@@@@.....@@@@@@@@@@@@@@@@@@@..##########   ",
" ###.....@@.@@@@..@@@..@.....@@@@@@@@@@@@@@@@.@..####           ",
" ###.##.....@@@..@@@@@.......@@@@@@@@@@@@@@.@...##              ",
"  #####.....@@@@@@@@@@@@...@@@.@@@@@@@@@@.@@....#               ",
"   ####.##.@@@@@@@@@@@@....@...@@@@@@@.@@..@...                 ",
"    ##.##.@@@.@..@..@@...#....@@@.@@@@..@@....                  ",
"     ####@@@....@@..@...####..@...@@@@@.@@..                    ",
"     ####.......@@......#####....@@..@.....                     ",
"      ###.......@...#..#########.....@....                      ",
"       ###..#..#...####    #######......%%                      ",
"      $###.##..#######          ###...$%%%%                     ",
"     $######..###               $##.$$%%%%%%                    ",
"    $$#####$$%%                 $#..$  %%%%%%                   ",
"    $##$$$ %%%%                 $#..$  %%%%%%                   ",
"   $$#$$   %%%%                 $$.$    %%%%%%                  ",
"   $$$$    %%%%                $$$$$     %%%%%%                 ",
"   $$$$     %%%%               $$$$       %%%%%                 ",
"   $$$      %%%%%              $$$          %%%%                ",
"             %%%%              $$$          %%%%                ",
"                                                                ",
"                                                                ",
"                                                                ",
"                                                                ",
"                                                                ",
"                                                                ",
"                                                                ",
"                                                                ",
"                                                                ",
"                                                                ",
"                                                                ",
"                                                                ",
"                                                                ",
"                                                                ",
"                                                                "};
